<?xml version="1.0" encoding="iso-8859-1"?>
<!DOCTYPE svg PUBLIC "-//W3C//DTD SVG 1.1//EN" "http://www.w3.org/Graphics/SVG/1.1/DTD/svg11.dtd">
<svg 
 version="1.1" xmlns="http://www.w3.org/2000/svg" xmlns:xlink="http://www.w3.org/1999/xlink" x="0px" y="0px" width="512px"
	 height="512px" viewBox="0 0 512 512" enable-background="new 0 0 512 512" xml:space="preserve"
><g id="3e91140ac1bfb9903b91c1b0ca02a5f2"><g></g><path display="inline" d="M490.208,287.938H511.5v149.042c0,11.71-9.581,21.291-21.292,21.291H21.792
		c-11.71,0-21.292-9.581-21.292-21.291V287.938h21.292h68.133v21.292v17.033h17.034h42.583h17.034v-17.033v-21.292h178.85v21.292
		v17.033h17.033h42.584h17.033v-17.033v-21.292H490.208z M192.705,129.402c0-1.362,0.123-2.701,0.268-4.034
		c0.069-0.569,0.133-1.14,0.227-1.705c0.083-0.523,0.21-1.039,0.316-1.562c0.322-1.52,0.707-3.025,1.2-4.497
		C201.671,96.806,226.47,81.353,256,81.353c29.529,0,54.327,15.453,61.284,36.252c0.495,1.472,0.878,2.978,1.202,4.497
		c0.104,0.522,0.232,1.038,0.315,1.562c0.092,0.565,0.158,1.136,0.225,1.705c0.146,1.333,0.267,2.672,0.267,4.034l0.05,29.987
		h28.211v-29.987c0-2.112-0.149-4.196-0.382-6.261c-0.188-1.863-0.495-3.695-0.84-5.517c0-0.008,0-0.015-0.005-0.021
		C339.437,81.476,301.615,53.729,256,53.729c-45.615,0-83.437,27.746-90.327,63.875c0,0.006-0.002,0.013-0.004,0.021
		c-0.345,1.821-0.653,3.653-0.84,5.517c-0.235,2.064-0.383,4.148-0.383,6.261v29.987h28.211L192.705,129.402z M468.085,134.638
		c-7.29-9.369-23.196-17.033-35.348-17.033h-69.061c0.578,3.867,0.911,7.799,0.911,11.798v29.987v17.033h-17.034h-28.211h-17.009
		l-0.024-17.007l-0.05-30.014c0-4.15-1.298-8.139-3.622-11.798h-85.271c-2.325,3.664-3.628,7.664-3.628,11.825l-0.048,29.986
		l-0.027,17.007h-17.006h-28.211h-17.033V159.39v-29.987c0-3.999,0.333-7.931,0.911-11.798H79.263
		c-12.149,0-28.058,7.664-35.348,17.033L0.5,202.771v63.874h89.425v-21.291v-17.033h17.034h42.583h17.034v17.033v21.291h178.85
		v-21.291v-17.033h17.033h42.584h17.033v17.033v21.291H511.5v-63.874L468.085,134.638z M405.042,287.938v-21.292v-21.291h-42.584
		v63.875h42.584V287.938z M149.542,287.938v-21.292v-21.291h-42.583v63.875h42.583V287.938z"></path></g></svg>